<?xml version="1.0" encoding="UTF-8"?>
<svg width="512px" height="512px" viewBox="0 0 512 512" version="1.1" xmlns="http://www.w3.org/2000/svg" xmlns:xlink="http://www.w3.org/1999/xlink">
    <title>Images/Icons/nav-user-veritifcation</title>
    <g id="Images/Icons/nav-user-veritifcation" stroke="none" stroke-width="1" fill="none" fill-rule="evenodd">
        <path d="M290.909091,128 C290.909091,95.9166662 264.810607,69.8181818 232.727273,69.8181818 C200.643939,69.8181818 174.545455,95.9166662 174.545455,128 C174.545455,160.083334 200.643939,186.181818 232.727273,186.181818 C264.810607,186.181818 290.909091,160.083334 290.909091,128 Z" id="Shape" fill="#00A2FF"></path>
        <path d="M325.818182,285.090909 C325.818182,236.969697 284.056566,197.818182 232.727273,197.818182 C181.39798,197.818182 139.636364,236.969697 139.636364,285.090909 L139.636364,314.181818 L325.818182,314.181818 L325.818182,285.090909 Z" id="Shape" fill="#00A2FF"></path>
        <path d="M75,512 L362,512 C395.085938,512 422,485.085938 422,452 C422,432.191406 422,104.664062 422,90 L512,90 L512,60 C512,26.914062 485.085938,0 452,0 L135,0 C93.644531,0 60,33.644531 60,75 L60,422 L0,422 L0,437 C0,478.355469 33.644531,512 75,512 Z M482,60 L422,60 C422,43.457031 435.457031,30 452,30 C468.542969,30 482,43.457031 482,60 Z M90,75 C90,50.1875 110.1875,29.988281 135,29.988281 L400.070312,29.988281 C394.949219,38.824219 392,49.074219 392,60 L392,452 C392,468.542969 378.542969,482 362,482 C345.457031,482 332,468.542969 332,452 L332,422 L90,422 L90,75 Z M302,452 C302,462.921875 304.933594,473.171875 310.050781,482 L75,482 C55.445312,482 38.761719,469.460938 32.570312,452 L302,452 Z" id="Shape" fill="#313A49"></path>
        <polygon id="Path" fill="#00A2FF" points="139.636364 349.090909 325.818182 349.090909 325.818182 384 139.636364 384"></polygon>
    </g>
</svg>